<svg width="12" height="12" viewBox="0 0 12 12" fill="none" xmlns="http://www.w3.org/2000/svg">
<path d="M1.8 5.25C2.46188 5.25 3 4.57734 3 3.75C3 2.92266 2.46188 2.25 1.8 2.25C1.13813 2.25 0.6 2.92266 0.6 3.75C0.6 4.57734 1.13813 5.25 1.8 5.25ZM10.2 5.25C10.8619 5.25 11.4 4.57734 11.4 3.75C11.4 2.92266 10.8619 2.25 10.2 2.25C9.53813 2.25 9 2.92266 9 3.75C9 4.57734 9.53813 5.25 10.2 5.25ZM10.8 6H9.6C9.27 6 8.97188 6.16641 8.75438 6.43594C9.51 6.95391 10.0463 7.88906 10.1625 9H11.4C11.7319 9 12 8.66484 12 8.25V7.5C12 6.67266 11.4619 6 10.8 6ZM6 6C7.16063 6 8.1 4.82578 8.1 3.375C8.1 1.92422 7.16063 0.75 6 0.75C4.83938 0.75 3.9 1.92422 3.9 3.375C3.9 4.82578 4.83938 6 6 6ZM7.44 6.75H7.28438C6.89438 6.98438 6.46125 7.125 6 7.125C5.53875 7.125 5.1075 6.98438 4.71563 6.75H4.56C3.3675 6.75 2.4 7.95938 2.4 9.45V10.125C2.4 10.7461 2.80313 11.25 3.3 11.25H8.7C9.19688 11.25 9.6 10.7461 9.6 10.125V9.45C9.6 7.95938 8.6325 6.75 7.44 6.75ZM3.24563 6.43594C3.02813 6.16641 2.73 6 2.4 6H1.2C0.538125 6 0 6.67266 0 7.5V8.25C0 8.66484 0.268125 9 0.6 9H1.83563C1.95375 7.88906 2.49 6.95391 3.24563 6.43594Z" fill="#EF766C"/>
</svg>
